<svg width="14" height="18" viewBox="0 0 14 18" fill="none" xmlns="http://www.w3.org/2000/svg">
<path d="M1 3.91498C1 2.8948 1 2.38471 1.20762 1.99486C1.39023 1.65209 1.68161 1.37341 2.04 1.19875C2.44762 1.00018 2.98095 1.00018 4.04762 1.00018H9.38095C10.4476 1.00018 10.981 1.00018 11.3886 1.19875C11.747 1.37341 12.0383 1.65209 12.221 1.99486C12.4286 2.38471 12.4286 2.8948 12.4286 3.91498V16.0342C12.4286 16.4769 12.4286 16.6982 12.3324 16.8194C12.2908 16.872 12.2378 16.9155 12.1769 16.9466C12.1161 16.9777 12.0489 16.9959 11.98 16.9997C11.821 17.0088 11.6286 16.8859 11.2438 16.6408L6.71429 13.7524L2.18476 16.6399C1.8 16.8859 1.60762 17.0088 1.44762 16.9997C1.37889 16.9957 1.31188 16.9776 1.25121 16.9464C1.19054 16.9153 1.13765 16.8719 1.09619 16.8194C1 16.6982 1 16.4769 1 16.0342V3.91498Z" stroke="#AAAAAA" stroke-width="1.5" stroke-linecap="round" stroke-linejoin="round"/>
</svg>
